<?xml version="1.0" encoding="UTF-8"?>
<svg xmlns="http://www.w3.org/2000/svg" xmlns:xlink="http://www.w3.org/1999/xlink" width="32px" height="32px" viewBox="0 0 32 32" version="1.1">
<g id="surface1">
<path style="stroke:none;fill-rule:nonzero;fill:rgb(100%,100%,100%);fill-opacity:1;"  d="M 0 0 L 32 0 L 32 32 L 0 32 Z M 18.957031 6.21875 L 18.957031 13.195312 C 19.777344 12.5 19.777344 12.5 20.539062 11.761719 C 20.882812 11.414062 21.238281 11.082031 21.613281 10.769531 C 22.359375 10.125 23.039062 9.417969 23.730469 8.71875 C 24.324219 8.121094 24.925781 7.550781 25.582031 7.019531 C 25.824219 6.8125 25.824219 6.8125 25.933594 6.371094 C 25.28125 6.34375 24.632812 6.320312 23.980469 6.292969 L 23.4375 6.273438 C 21.941406 6.214844 20.457031 6.21875 18.957031 6.21875 Z M 17.949219 6.917969 L 17.640625 7.28125 C 17 8.003906 16.347656 8.714844 15.6875 9.421875 L 15.386719 9.742188 C 14.890625 10.269531 14.390625 10.789062 13.875 11.296875 C 12.789062 12.371094 12.789062 12.371094 11.980469 13.648438 C 12.886719 13.652344 13.789062 13.65625 14.695312 13.65625 C 15.003906 13.660156 15.308594 13.660156 15.617188 13.660156 C 16.058594 13.664062 16.5 13.664062 16.941406 13.664062 L 17.363281 13.667969 C 17.691406 13.667969 18.019531 13.660156 18.351562 13.648438 C 18.53125 13.5 18.53125 13.5 18.519531 13.21875 L 18.519531 12.441406 L 18.515625 11.988281 L 18.515625 11.53125 C 18.515625 11.046875 18.515625 10.5625 18.511719 10.074219 C 18.511719 9.746094 18.511719 9.417969 18.511719 9.089844 C 18.507812 8.285156 18.503906 7.480469 18.503906 6.671875 C 18.175781 6.636719 18.175781 6.636719 17.949219 6.917969 Z M 25.023438 7.933594 C 24.875 8.089844 24.730469 8.246094 24.585938 8.40625 L 24.359375 8.652344 C 24.175781 8.847656 23.992188 9.050781 23.808594 9.25 L 24.113281 9.402344 C 24.511719 9.195312 24.890625 8.984375 25.269531 8.75 L 25.59375 8.558594 C 25.867188 8.394531 26.128906 8.214844 26.386719 8.039062 L 26.386719 7.734375 C 25.75 7.53125 25.570312 7.511719 25.023438 7.933594 Z M 7.886719 8.339844 L 7.886719 13.648438 L 9.429688 13.695312 L 9.914062 13.71875 C 10.785156 13.734375 10.785156 13.734375 11.527344 13.292969 L 11.828125 12.890625 L 12.585938 12.132812 C 12.324219 11.558594 11.984375 11.15625 11.5625 10.691406 C 11.300781 10.398438 11.046875 10.101562 10.800781 9.796875 C 10.648438 9.613281 10.496094 9.433594 10.339844 9.25 L 10.128906 8.980469 C 9.886719 8.683594 9.886719 8.683594 9.402344 8.339844 Z M 6.425781 9.394531 L 6.050781 9.730469 L 5.761719 10.007812 L 5.761719 10.160156 L 7.429688 10.160156 L 7.429688 8.796875 C 6.960938 8.796875 6.769531 9.085938 6.425781 9.394531 Z M 8.339844 14.105469 C 8.585938 14.59375 8.703125 14.804688 9.066406 15.160156 L 9.320312 15.402344 L 9.582031 15.660156 C 10.222656 16.285156 10.835938 16.917969 11.414062 17.597656 C 11.863281 18.101562 12.347656 18.566406 12.828125 19.039062 C 13.238281 19.457031 13.621094 19.894531 14.003906 20.339844 C 14.417969 20.808594 14.839844 21.28125 15.316406 21.6875 L 15.621094 21.6875 C 16.011719 20.632812 16.398438 19.574219 16.785156 18.519531 L 17.183594 17.441406 C 17.375 16.925781 17.5625 16.410156 17.753906 15.894531 L 17.933594 15.40625 L 18.101562 14.957031 L 18.246094 14.554688 C 18.359375 14.285156 18.359375 14.285156 18.351562 14.105469 Z M 18.199219 15.621094 C 17.789062 16.730469 17.382812 17.839844 16.976562 18.949219 C 16.835938 19.324219 16.699219 19.703125 16.558594 20.082031 C 16.359375 20.621094 16.160156 21.164062 15.960938 21.707031 L 15.773438 22.21875 L 15.597656 22.695312 L 15.445312 23.117188 C 15.320312 23.496094 15.234375 23.871094 15.164062 24.265625 C 15.851562 24.707031 16.550781 25.128906 17.261719 25.527344 L 17.679688 25.761719 C 18.046875 25.964844 18.046875 25.964844 18.503906 25.933594 L 18.503906 15.621094 Z M 18.199219 15.621094 "/>
</g>
</svg>
